<svg width="40" height="27" viewBox="0 0 40 27" fill="none" xmlns="http://www.w3.org/2000/svg">
<ellipse cx="20" cy="13.4988" rx="20" ry="13.2604" fill="#61C4A1"/>
<path d="M27.76 16.0981C26.4636 15.4129 25.148 14.9979 23.8675 15.682L23.1029 16.0955C22.5435 16.3956 21.5034 17.798 17.482 14.9394C13.4615 12.0845 15.854 11.6399 16.4143 11.3424L17.1831 10.9284C18.4568 10.2427 17.9761 9.37957 17.0574 8.49105L16.5031 7.95286C15.5802 7.06641 14.5753 6.48424 13.2982 7.16887L12.6081 7.54146C12.0437 7.79555 10.4659 8.62145 10.0832 10.1905C9.62262 12.0731 11.0756 14.2289 14.4044 16.5943C17.7291 18.9608 20.9842 20.1495 24.0677 20.1288C26.6303 20.1117 28.1779 19.262 28.6619 18.953L29.3545 18.5799C30.6282 17.8958 29.8368 17.1993 28.5396 16.5126L27.76 16.0981Z" fill="white"/>
</svg>
